<svg width="19" height="20" viewBox="0 0 19 20" fill="none" xmlns="http://www.w3.org/2000/svg">
<path d="M9.5 12C14.7465 12 19 14.0893 19 16.6667V20H0V16.6667C0 14.0893 4.25347 12 9.5 12ZM17.7333 16.6667C17.7333 14.8267 14.0473 13.3333 9.5 13.3333C4.95267 13.3333 1.26667 14.8267 1.26667 16.6667V18.6667H17.7333V16.6667ZM9.5 0C10.6758 0 11.8034 0.491666 12.6348 1.36684C13.4663 2.24201 13.9333 3.42899 13.9333 4.66667C13.9333 5.90434 13.4663 7.09133 12.6348 7.9665C11.8034 8.84167 10.6758 9.33333 9.5 9.33333C8.32421 9.33333 7.19657 8.84167 6.36516 7.9665C5.53375 7.09133 5.06667 5.90434 5.06667 4.66667C5.06667 3.42899 5.53375 2.24201 6.36516 1.36684C7.19657 0.491666 8.32421 0 9.5 0ZM9.5 1.33333C8.66015 1.33333 7.85469 1.68452 7.26083 2.30964C6.66696 2.93477 6.33333 3.78261 6.33333 4.66667C6.33333 5.55072 6.66696 6.39857 7.26083 7.02369C7.85469 7.64881 8.66015 8 9.5 8C10.3399 8 11.1453 7.64881 11.7392 7.02369C12.333 6.39857 12.6667 5.55072 12.6667 4.66667C12.6667 3.78261 12.333 2.93477 11.7392 2.30964C11.1453 1.68452 10.3399 1.33333 9.5 1.33333Z" fill="white"/>
</svg>
