<?xml version="1.0" encoding="utf-8"?>
<!-- Generator: Adobe Illustrator 22.1.0, SVG Export Plug-In . SVG Version: 6.00 Build 0)  -->
<svg version="1.1" id="Layer_1" xmlns="http://www.w3.org/2000/svg" xmlns:xlink="http://www.w3.org/1999/xlink" x="0px" y="0px"
	 viewBox="0 0 654.4 84.8" style="enable-background:new 0 0 654.4 84.8;" xml:space="preserve">
<style type="text/css">
	.st0{fill:#E4002B;}
	.st1{fill:#161616;}
	.st2{fill:#FFFFFF;}
	.st3{display:none;fill:#161616;}
	.st4{display:none;fill:#5171FF;}
</style>
<rect x="443.4" class="st0" width="211" height="84.8"/>
<polygon class="st1" points="0,10 0,21.6 31.6,21.6 31.6,76.2 44.5,76.2 44.5,21.6 76.1,21.6 76.1,10 "/>
<path class="st1" d="M148.4,51.3c11-2.4,16.5-9.2,16.5-20.2c0-6.4-2.1-11.6-6.3-15.4s-9.8-5.7-16.8-5.7H88.1v66.5h13V52.1h33
	l17.4,24.4h14.9L148.4,51.3z M101.1,40.4V21.7h38c8.4,0,12.5,3.2,12.5,9.6c0,6-3.9,9.1-11.8,9.1H101.1z"/>
<path class="st1" d="M227.9,10h-16.1l-36.2,66.5h14.3l7.6-14.3h44.7l7.7,14.3h14.3L227.9,10z M204,50.6l15.9-29.4l15.8,29.4H204z"/>
<path class="st1" d="M282.3,27.3c5.3-4.1,12.5-6.2,21.4-6.2c10.4,0,19,3.3,25.7,10l11.3-3.9C331.2,15.7,318.6,10,302.9,10
	c-11.1,0-20.5,2.8-28.2,8.4c-8.8,6.4-13.2,14.7-13.2,24.9c0,9.8,3.9,17.8,11.6,24c7.8,6.2,17.9,9.4,30.5,9.4
	c15.1,0,27.3-5.2,36.6-15.7l-10.5-5.6c-6.6,6.8-15.2,10.2-25.7,10.2c-9.1,0-16.3-2-21.6-6.1s-8-9.5-8-16.3
	C274.3,36.7,277,31.4,282.3,27.3z"/>
<polygon class="st1" points="429.8,10 410.6,10 365.5,42.4 365.5,10 352.6,10 352.6,76.2 365.5,76.2 365.5,56.2 384.4,42.7 
	415.9,76.2 432.5,76.2 394.3,35.4 "/>
<rect x="540.1" y="10.3" class="st2" width="12.9" height="65.9"/>
<polygon class="st2" points="577.5,56.3 596.3,42.8 627.7,76.2 644.3,76.2 606.2,35.5 641.5,10.3 622.4,10.3 577.5,42.5 577.5,10.3 
	564.7,10.3 564.7,76.2 577.5,76.2 "/>
<polygon class="st2" points="483.8,76.2 496.7,76.2 496.7,21.9 528.2,21.9 528.2,10.3 452.3,10.3 452.3,21.9 483.8,21.9 "/>
<rect x="76.3" y="-13.8" class="st3" width="11.7" height="117.3"/>
<rect x="166.3" y="-13.8" class="st4" width="8.9" height="117.3"/>
<rect x="340.7" y="-13.8" class="st3" width="11.7" height="117.3"/>
<rect x="431.6" y="-13.8" class="st3" width="11.7" height="117.3"/>
<rect x="528.6" y="-13.8" class="st3" width="11.7" height="117.3"/>
<rect x="553.3" y="-13.8" class="st3" width="11.7" height="117.3"/>
<rect x="443.3" y="-13.8" class="st4" width="8.9" height="117.3"/>
<rect x="645.6" y="-13.8" class="st4" width="8.9" height="117.3"/>
<rect x="247.7" y="-13.8" transform="matrix(0.8828 -0.4698 0.4698 0.8828 8.4833 123.7069)" class="st4" width="8.9" height="117.3"/>
</svg>
