<svg width="20" height="20" viewBox="0 0 20 20" fill="none" xmlns="http://www.w3.org/2000/svg">
<path d="M14.1176 0H20V9.23077H14.1176V0ZM7.05882 9.23077V0H12.9412V9.23077H7.05882ZM14.1176 20V10.7692H20V20H14.1176ZM7.05882 20V10.7692H12.9412V20H7.05882ZM0 20V10.7692H5.88235V20H0ZM0 9.23077V0H5.88235V9.23077H0ZM1.17647 1.53846V7.69231H4.70588V1.53846H1.17647ZM8.23529 1.53846V7.69231H11.7647V1.53846H8.23529ZM15.2941 1.53846V7.69231H18.8235V1.53846H15.2941ZM1.17647 12.3077V18.4615H4.70588V12.3077H1.17647ZM8.23529 12.3077V18.4615H11.7647V12.3077H8.23529ZM15.2941 12.3077V18.4615H18.8235V12.3077H15.2941Z" fill="white"/>
</svg>
